<?xml version="1.0" standalone="no"?>
<!DOCTYPE svg PUBLIC "-//W3C//DTD SVG 20010904//EN"
 "http://www.w3.org/TR/2001/REC-SVG-20010904/DTD/svg10.dtd">
<svg version="1.0" xmlns="http://www.w3.org/2000/svg"
 width="220.000000pt" height="220.000000pt" viewBox="0 0 220.000000 220.000000"
 preserveAspectRatio="xMidYMid meet">

<g transform="translate(-40.000000,250.000000) scale(0.100000,-0.100000)"
fill="#000000" stroke="none">
<path d="M540 2456 c-7 -18 18 -48 176 -205 l185 -185 -33 -33 -34 -33 -135
123 c-74 68 -147 141 -162 161 -34 43 -47 46 -47 8 0 -30 31 -63 205 -221 l70
-63 -55 7 c-59 9 -238 10 -246 2 -2 -2 -2 -12 2 -21 5 -13 22 -16 103 -16 53
0 114 -4 136 -9 22 -5 89 -12 148 -16 60 -4 107 -9 105 -11 -7 -6 -149 -34
-228 -45 -95 -12 -223 -39 -233 -49 -4 -4 -3 -19 2 -33 l10 -26 43 19 c24 10
108 30 188 44 80 15 170 33 200 41 72 19 77 19 54 -6 -23 -25 -120 -75 -301
-154 -73 -32 -133 -60 -133 -63 0 -3 7 -13 15 -22 14 -15 35 -7 262 106 136
67 251 120 256 117 4 -3 0 -14 -10 -25 -34 -38 -321 -270 -389 -314 l-25 -17
21 -23 22 -22 41 40 c23 23 87 77 142 122 55 44 132 109 171 143 l71 61 21
-28 21 -28 -200 -193 c-177 -170 -198 -194 -185 -207 13 -13 37 7 211 174 108
104 201 191 207 193 5 2 20 -7 33 -19 l24 -22 -87 -90 c-47 -49 -97 -94 -112
-101 -14 -7 -26 -21 -28 -32 -1 -11 -36 -53 -77 -94 -41 -41 -75 -77 -75 -81
0 -5 7 -11 16 -14 12 -5 45 21 113 86 53 51 99 100 103 108 7 16 187 198 189
190 0 -3 2 -29 4 -58 3 -52 2 -55 -38 -95 -23 -23 -95 -97 -160 -164 -113
-117 -117 -122 -96 -134 20 -10 27 -7 73 42 82 89 218 229 222 229 2 0 3 -28
2 -62 l-1 -63 -80 -81 c-80 -82 -88 -104 -40 -104 23 0 25 -3 18 -27 -5 -16
-9 -107 -10 -204 -2 -170 -1 -176 21 -202 13 -15 24 -27 26 -27 2 0 3 112 3
248 l0 248 28 42 c15 23 29 42 32 42 2 0 3 -143 1 -318 l-4 -318 24 -27 24
-28 0 392 0 393 35 -34 35 -34 0 -391 0 -392 23 -21 22 -21 0 390 c0 214 2
389 3 389 2 0 12 -10 21 -21 l17 -22 20 25 c19 24 19 22 17 -286 -2 -171 -3
-347 -3 -390 0 -53 -3 -77 -10 -70 -6 6 -11 148 -13 364 l-2 355 -3 -379 c-2
-355 -3 -378 -19 -372 -17 7 -17 6 -1 -10 16 -17 23 -12 118 84 l101 102 -3
321 -3 321 26 -32 c34 -41 39 -79 39 -327 l0 -205 -25 -20 c-14 -11 -25 -27
-25 -36 0 -11 18 3 50 37 l50 54 0 143 c0 88 4 144 10 144 5 0 1 23 -10 50
-27 70 -26 80 10 80 40 0 35 8 -58 103 l-72 74 0 69 1 69 87 -90 c48 -50 111
-118 140 -152 l53 -61 54 31 c30 17 52 34 49 38 -6 11 -36 0 -52 -19 -11 -14
-25 -2 -109 88 -53 58 -125 133 -160 167 -61 60 -63 64 -63 112 0 28 3 51 8
51 4 0 97 -90 206 -200 l199 -200 41 40 c22 22 35 40 28 40 -6 0 -19 -9 -30
-20 -18 -19 -21 -16 -211 174 l-194 194 21 22 c14 16 25 19 36 13 23 -13 333
-302 370 -345 l32 -37 77 77 77 77 -143 107 c-78 59 -179 137 -224 174 -80 67
-81 68 -65 91 10 12 23 20 30 18 7 -3 12 4 12 16 0 22 22 34 46 25 15 -6 15
-8 -2 -27 -11 -12 -30 -25 -43 -30 -19 -8 -21 -12 -11 -24 7 -8 17 -15 22 -15
5 0 89 -39 187 -87 97 -49 198 -98 223 -109 l45 -21 36 68 36 68 -30 6 c-17 4
-33 4 -36 1 -4 -3 -1 -6 5 -6 7 0 12 -12 12 -27 0 -55 -9 -56 -115 -13 -208
87 -315 149 -315 184 0 11 23 6 39 -8 14 -11 94 -33 348 -92 60 -13 103 -18
103 -10 0 9 21 113 27 131 5 17 4 18 -11 6 -9 -8 -16 -28 -16 -47 0 -19 -5
-34 -11 -34 -27 0 -319 51 -342 59 -21 8 -46 30 -35 31 102 14 284 29 346 30
77 0 82 1 82 21 0 21 -3 21 -145 17 -80 -2 -145 -3 -145 -2 0 4 161 156 211
200 47 41 56 53 51 74 -2 14 -6 27 -8 28 -1 2 -73 -65 -159 -150 -86 -84 -162
-153 -169 -153 -7 0 -26 12 -43 26 l-32 27 184 183 c161 162 182 187 175 206
-8 20 -48 -17 -422 -386 -227 -223 -445 -437 -484 -474 l-71 -67 -199 193
c-109 106 -327 319 -483 473 -250 247 -284 278 -291 260z m467 -493 c-2 -1
-17 2 -33 7 -16 5 -42 12 -58 15 l-29 6 24 25 23 24 38 -37 c21 -20 36 -38 35
-40z m1112 15 c-24 -3 -55 -7 -68 -7 -25 -1 -24 -1 8 33 l34 35 35 -27 36 -27
-45 -7z m-1078 -38 c24 -13 25 -40 1 -40 -18 0 -45 34 -35 44 8 8 11 8 34 -4z
m1094 -305 c105 -82 175 -148 175 -164 0 -7 -4 -10 -9 -6 -10 6 -35 -15 -50
-43 -8 -13 -34 8 -159 130 -83 80 -173 165 -200 188 l-50 43 20 28 21 28 81
-68 c44 -37 121 -98 171 -136z m-543 -88 l78 78 0 -77 0 -76 -77 -79 -78 -79
-77 76 -78 76 0 77 0 77 77 -75 77 -76 78 78z m78 -516 l0 -380 -35 -37 -35
-37 0 378 0 378 33 37 c17 21 33 39 35 39 1 1 2 -170 2 -378z"/>
<path d="M1521 1400 l1 -55 11 43 c7 31 7 46 -1 54 -9 9 -12 -1 -11 -42z"/>
<path d="M492 2378 c-10 -35 -4 -60 8 -37 4 8 10 26 14 42 9 39 -12 34 -22 -5z"/>
<path d="M1180 2293 c0 -5 31 -40 68 -80 l68 -72 -3 -138 c-2 -76 -7 -139 -11
-141 -34 -12 -26 -24 88 -142 l120 -124 120 119 c66 66 120 123 120 126 0 4
-9 9 -20 12 -19 5 -20 14 -20 126 0 109 2 121 19 131 34 18 93 12 118 -12 l23
-21 0 27 c0 51 -26 95 -67 112 -21 9 -68 31 -104 50 l-67 34 -226 0 c-124 0
-226 -3 -226 -7z m472 -40 c10 -9 18 -19 18 -22 0 -3 -84 -5 -187 -3 -152 3
-191 7 -205 20 -10 8 -18 18 -18 21 0 3 84 5 187 3 155 -3 191 -6 205 -19z
m50 -90 c-11 -15 -57 -64 -102 -108 l-82 -79 -94 97 c-52 54 -94 100 -94 102
0 3 25 5 55 5 48 0 57 -3 64 -22 10 -28 38 -53 67 -62 34 -10 71 10 126 69 45
49 53 54 66 41 13 -12 12 -18 -6 -43z m-137 8 c0 -8 -8 -19 -17 -24 -13 -9
-22 -7 -37 7 -31 28 -26 38 17 34 23 -2 37 -8 37 -17z m232 2 c4 -11 -35 -25
-49 -17 -4 3 -8 12 -8 20 0 17 52 14 57 -3z m-400 -200 l-37 -38 0 75 0 75 37
-38 38 -37 -38 -37z m271 -2 l-3 -30 -33 30 -32 29 32 29 33 30 3 -30 c2 -16
2 -42 0 -58z m-236 -96 c-65 -61 -81 -66 -82 -23 0 9 23 42 51 73 l52 56 23
-22 23 -22 -67 -62z m243 -45 l-19 -21 -62 62 -63 62 22 18 c22 18 23 17 81
-41 59 -59 60 -59 41 -80z m-102 2 l57 -58 -59 -58 -60 -59 -59 60 -60 61 57
56 c31 31 58 56 61 56 3 0 31 -26 63 -58z"/>
<path d="M1521 1775 c0 -54 3 -73 9 -60 12 27 12 107 0 125 -7 10 -10 -10 -9
-65z"/>
<path d="M458 2220 c-12 -40 -9 -179 3 -158 5 10 9 55 7 100 -2 56 -5 75 -10
58z"/>
<path d="M2551 2161 c-1 -52 -5 -70 -23 -89 l-23 -24 25 7 c14 4 28 10 31 14
4 3 3 40 -1 81 l-7 75 -2 -64z"/>
<path d="M459 1949 c-3 -34 4 -65 16 -78 11 -11 11 -5 4 35 -9 49 -18 68 -20
43z"/>
<path d="M510 1746 c0 -14 39 -67 40 -53 0 11 -29 67 -35 67 -3 0 -5 -6 -5
-14z"/>
<path d="M2361 1629 c17 -17 19 -28 14 -61 l-7 -41 32 37 c18 20 31 38 29 40
-15 11 -78 46 -83 46 -3 0 3 -9 15 -21z"/>

<path d="M1894 1214 c-18 -15 -18 -15 6 -10 14 3 33 6 43 6 10 0 15 5 12 10
-9 15 -39 12 -61 -6z"/>
<path d="M1856 1033 c4 -16 13 -40 21 -55 34 -69 34 -73 -4 -122 -20 -26 -34
-49 -31 -52 3 -2 27 15 52 38 l48 43 -41 88 c-41 88 -57 110 -45 60z"/>
<path d="M1150 1028 c-36 -89 -57 -148 -52 -153 13 -13 22 -2 27 33 4 20 15
61 25 90 19 51 19 74 0 30z"/>

</g>
</svg>
