<?xml version="1.0" standalone="no"?>
<!DOCTYPE svg PUBLIC "-//W3C//DTD SVG 20010904//EN"
 "http://www.w3.org/TR/2001/REC-SVG-20010904/DTD/svg10.dtd">
<svg version="1.0" xmlns="http://www.w3.org/2000/svg"
 width="300.000000pt" height="192.000000pt" viewBox="0 0 300.000000 192.000000"
 preserveAspectRatio="xMidYMid meet">
<metadata>
Created by potrace 1.10, written by Peter Selinger 2001-2011
</metadata>
<g transform="translate(0.000000,192.000000) scale(0.100000,-0.100000)"
fill="#000000" stroke="none">
<path d="M1134 1903 c3 -10 12 -51 21 -90 l17 -73 61 0 c70 0 101 -13 130 -52
39 -52 -11 -145 -111 -209 l-44 -28 34 -14 c157 -66 368 -66 522 -2 l38 16
-43 28 c-50 31 -106 91 -120 128 -15 40 -11 61 20 95 26 29 34 32 106 37 l79
6 17 80 c24 107 24 108 -11 85 -13 -9 -13 -11 0 -20 13 -8 13 -10 -1 -10 -17
0 -34 -28 -44 -73 -4 -18 -11 -27 -19 -24 -7 3 -48 1 -91 -4 l-78 -10 -26 31
c-39 46 -95 51 -158 14 l-48 -28 38 -15 c23 -10 36 -22 35 -31 -5 -25 -38 -23
-78 5 -43 30 -113 49 -147 41 -25 -7 -28 -4 -37 46 l-7 38 318 2 c285 3 318 5
321 19 3 15 -15 17 -165 18 -121 0 -169 -3 -175 -12 -5 -8 -8 -8 -8 -1 0 15
-167 19 -185 4 -9 -8 -15 -8 -20 0 -3 5 -13 10 -21 10 -9 0 -12 -5 -8 -12 4
-7 3 -8 -4 -4 -6 4 -25 9 -41 11 -17 2 -40 7 -52 10 -17 6 -20 4 -15 -12z
m400 -98 c-4 -10 0 -15 14 -15 12 0 25 -7 30 -16 5 -9 11 -15 13 -14 2 1 16
-3 32 -9 30 -12 37 -26 9 -19 -20 6 -46 -18 -48 -44 -1 -10 6 -18 15 -18 14 0
14 -2 1 -10 -11 -7 -11 -10 -2 -10 7 0 11 -4 7 -9 -3 -5 -1 -12 4 -16 6 -3 8
-12 4 -20 -3 -9 0 -21 6 -29 6 -7 8 -16 4 -19 -3 -4 1 -7 9 -7 20 0 49 -44 42
-63 -3 -8 -1 -18 5 -22 6 -3 11 -13 11 -22 0 -11 -7 -14 -25 -11 -14 3 -25 2
-25 -3 0 -4 -15 -7 -34 -6 -19 1 -32 6 -29 10 3 5 -5 3 -18 -4 -33 -18 -71
-18 -93 0 -11 9 -16 11 -13 4 4 -6 3 -14 -3 -18 -5 -3 -10 -2 -10 3 0 6 -9 8
-21 5 -12 -3 -25 0 -29 7 -6 9 -12 9 -30 0 -13 -7 -20 -8 -16 -2 3 6 1 14 -5
18 -6 3 -15 0 -20 -7 -6 -10 -9 -8 -9 8 0 17 -4 21 -17 16 -14 -5 -13 -3 3 14
10 11 25 18 32 15 6 -2 12 3 12 12 0 9 4 16 9 16 5 0 11 9 14 21 4 14 10 18
18 13 9 -5 10 -2 6 9 -3 10 -2 17 4 17 6 0 8 4 5 9 -3 5 1 11 9 15 10 4 12 11
7 27 -9 24 -4 69 7 69 4 0 12 -5 18 -11 8 -8 13 -7 18 2 5 8 4 10 -3 5 -7 -4
-12 -2 -12 3 0 12 26 15 33 4 2 -5 2 -2 0 5 -3 14 19 42 34 42 5 0 9 9 9 20 0
18 -3 17 -24 -8 l-23 -27 6 28 c3 15 2 27 -2 26 -31 -5 -20 5 17 16 25 7 46
13 47 14 1 1 0 -6 -3 -14z"/>
<path d="M15 1598 c31 -226 183 -419 394 -499 102 -38 326 -77 281 -48 -8 5
-43 26 -77 47 -71 42 -178 142 -224 209 -59 85 -119 246 -119 317 l0 26 -131
0 -131 0 7 -52z m146 7 c5 4 7 11 4 16 -4 5 -1 9 5 9 7 0 14 -9 17 -20 6 -22
18 -26 29 -8 5 7 2 8 -7 3 -11 -6 -11 -5 -2 5 6 7 19 10 28 6 14 -5 15 -9 5
-21 -9 -11 -9 -18 4 -30 8 -9 12 -23 9 -31 -3 -9 0 -20 8 -24 8 -5 12 -23 11
-44 -2 -20 1 -36 6 -36 4 0 20 -25 36 -55 15 -30 32 -55 37 -55 5 0 9 -9 9
-21 0 -11 4 -17 10 -14 6 3 7 -1 4 -9 -3 -9 -1 -16 5 -16 6 0 11 -9 11 -20 0
-11 3 -19 8 -19 23 4 34 -3 28 -17 -3 -8 -2 -12 4 -9 6 4 25 -10 44 -29 18
-20 40 -36 47 -37 10 0 11 -2 1 -6 -6 -2 -10 -9 -6 -14 3 -5 -2 -9 -11 -9 -11
0 -15 5 -11 15 4 13 2 13 -14 5 -11 -6 -21 -6 -24 -1 -3 5 -14 7 -24 4 -10 -2
-25 3 -33 13 -12 15 -12 16 0 9 10 -5 12 -4 7 4 -4 6 -16 9 -27 6 -22 -7 -25
5 -6 24 6 8 -1 5 -18 -5 -21 -14 -27 -15 -20 -4 14 22 15 40 3 40 -6 0 -8 -6
-5 -14 12 -31 -20 -21 -76 23 -33 25 -54 47 -48 49 6 2 11 8 11 13 0 4 -6 6
-14 3 -13 -5 -21 2 -54 41 -10 12 -10 15 0 15 7 1 3 9 -9 19 -13 11 -23 24
-23 31 0 6 -5 8 -12 4 -6 -4 -8 -3 -4 4 3 6 0 17 -8 25 -8 8 -12 17 -9 20 3 3
-2 13 -10 22 -9 9 -13 23 -10 32 5 11 3 14 -6 8 -10 -6 -11 -3 -2 14 8 14 8
21 1 21 -18 0 -11 20 8 21 13 0 12 2 -5 9 -26 11 -31 30 -7 30 8 0 12 4 9 10
-4 6 1 7 11 3 12 -4 15 -3 10 5 -4 7 7 6 29 -4 20 -8 40 -12 46 -9z"/>
<path d="M320 1632 c0 -36 39 -171 63 -219 138 -272 471 -427 767 -357 117 27
236 113 318 231 28 40 28 43 -5 43 -16 0 -59 7 -97 15 -61 13 -72 13 -86 0
-24 -22 -119 -61 -178 -74 -130 -27 -265 4 -361 84 -43 36 -124 163 -151 235
l-22 60 -124 0 c-114 0 -124 -2 -124 -18z m148 -24 c8 -8 12 -6 12 5 0 9 9 14
24 13 13 0 22 -5 18 -10 -3 -5 2 -7 11 -3 8 3 18 0 20 -7 4 -10 -1 -12 -14 -9
-11 3 -19 0 -19 -6 0 -7 4 -10 9 -7 14 9 82 -76 87 -109 4 -27 17 -55 26 -55
5 0 18 -10 28 -22 14 -18 16 -26 7 -37 -9 -11 -9 -13 0 -8 6 4 14 3 18 -3 4
-6 11 -7 17 -4 6 4 8 2 4 -4 -3 -6 3 -13 14 -17 23 -7 25 -16 8 -34 -11 -11
-9 -12 7 -3 23 11 63 -1 71 -22 3 -8 14 -13 25 -11 10 2 19 1 19 -3 0 -4 17
-8 38 -9 20 -1 56 -5 80 -8 38 -6 42 -9 38 -31 -3 -14 -1 -22 5 -19 5 4 9 13
9 21 0 8 4 13 9 9 5 -3 12 -1 16 5 3 5 -2 11 -12 11 -25 2 63 19 115 22 23 2
48 9 54 15 15 15 38 15 38 0 0 -6 3 -8 6 -5 4 4 1 14 -7 23 -12 15 -11 16 9
10 17 -6 22 -3 22 9 0 11 5 15 16 11 8 -3 12 -2 9 4 -3 6 -1 10 4 10 6 0 11
-6 11 -12 0 -9 4 -8 10 2 8 13 10 13 10 -1 0 -16 15 -17 70 -4 24 6 24 6 6 -9
-10 -8 -15 -19 -11 -25 3 -6 -1 -11 -11 -11 -17 0 -17 -1 0 -13 18 -13 18 -14
2 -20 -10 -4 -27 -2 -39 5 -19 10 -20 9 -9 -4 16 -20 -4 -72 -25 -64 -7 3 -13
-1 -13 -9 0 -8 -8 -15 -18 -15 -11 0 -30 -9 -43 -21 -13 -11 -36 -23 -51 -26
-16 -3 -28 -9 -28 -14 0 -4 -14 -6 -31 -4 -17 2 -49 -3 -71 -12 -35 -14 -49
-14 -102 -4 -34 7 -66 12 -71 10 -20 -3 -29 2 -17 10 8 5 -8 8 -42 9 -36 0
-61 5 -71 16 -9 8 -15 17 -13 18 1 2 -4 12 -10 23 -11 18 -12 17 -6 -9 5 -22
4 -28 -7 -24 -8 3 -14 17 -13 31 1 15 -3 24 -8 21 -4 -3 -6 -9 -3 -14 5 -8
-13 -8 -60 -1 -5 1 -1 9 10 18 19 15 19 15 -7 9 -21 -5 -26 -3 -22 8 3 8 0 14
-8 13 -30 -1 -51 3 -45 10 9 9 -13 34 -24 27 -5 -3 -9 4 -9 15 0 14 -6 21 -20
21 -14 0 -18 5 -13 17 5 12 2 15 -10 10 -11 -4 -18 1 -22 14 -4 10 -10 19 -15
19 -4 0 -11 11 -14 25 -4 14 -11 25 -16 25 -6 0 -10 9 -10 20 0 11 -6 20 -12
20 -8 0 -4 8 7 17 16 13 17 15 3 10 -13 -5 -18 -1 -18 13 0 11 -7 20 -15 20
-8 0 -15 5 -15 10 0 6 5 10 12 10 6 0 3 6 -7 14 -10 7 -16 20 -12 28 3 9 0 21
-6 28 -9 10 -8 12 6 7 9 -4 17 -2 17 2 0 5 -5 11 -12 13 -6 2 -9 9 -6 14 8 12
88 6 106 -8z"/>
<path d="M1020 1110 c0 -5 -11 -10 -25 -10 -25 0 -33 -14 -15 -25 6 -3 10 -1
10 6 0 6 8 9 19 6 13 -3 21 1 24 14 3 11 1 19 -4 19 -5 0 -9 -4 -9 -10z"/>
<path d="M641 1599 c28 -73 101 -182 141 -212 74 -57 189 -84 290 -67 63 10
168 47 167 59 0 3 -30 20 -67 38 -77 37 -162 105 -223 181 l-43 52 -143 0
-143 0 21 -51z m147 6 c9 -14 12 -15 8 -3 -2 9 2 19 10 22 9 3 14 -1 15 -12 0
-14 2 -14 9 3 7 18 8 19 15 3 4 -10 11 -15 16 -12 5 3 9 0 9 -5 0 -6 4 -11 9
-11 5 0 7 10 4 21 -6 20 -5 20 19 -2 14 -14 24 -34 23 -46 -1 -13 2 -23 6 -23
5 0 9 5 9 10 0 20 16 9 29 -21 8 -19 26 -36 43 -43 19 -7 27 -15 23 -25 -3 -9
-3 -13 0 -9 9 8 45 -23 39 -33 -2 -4 5 -6 16 -4 12 2 31 -6 47 -21 23 -21 24
-24 6 -24 -10 0 -24 -5 -31 -12 -9 -9 -12 -9 -12 0 0 7 -5 12 -11 12 -5 0 -7
-4 -4 -10 3 -5 2 -10 -4 -10 -5 0 -11 5 -13 11 -2 6 -16 12 -31 12 -15 1 -27
5 -27 10 0 4 -5 7 -11 7 -8 0 -8 -5 1 -15 7 -8 16 -13 20 -10 11 7 40 -5 40
-16 0 -5 -30 -6 -67 -3 -52 4 -71 10 -82 24 -10 15 -17 17 -31 10 -13 -7 -21
-7 -25 0 -3 5 -13 10 -22 10 -8 0 -26 9 -40 20 -14 11 -21 20 -16 20 5 0 10 7
10 15 0 8 -7 15 -14 15 -9 0 -11 -5 -7 -12 5 -9 2 -9 -9 1 -9 7 -17 22 -17 32
0 11 -4 19 -9 19 -9 0 -61 99 -61 116 0 5 24 9 52 9 42 0 56 -4 66 -20z"/>
<path d="M2064 1602 c-40 -61 -151 -154 -231 -194 -35 -17 -60 -35 -56 -39 26
-24 143 -52 223 -51 175 0 269 68 355 256 l34 76 -147 -1 -147 0 -31 -47z
m206 7 c0 -5 11 -7 24 -3 18 4 25 1 29 -15 5 -21 -8 -40 -15 -21 -2 6 -9 1
-15 -9 -9 -15 -10 -22 -1 -27 7 -4 8 -3 4 4 -4 7 -2 12 4 12 7 0 10 -6 8 -12
-3 -7 -10 -13 -15 -13 -6 0 -14 -3 -18 -7 -4 -4 -14 -4 -23 -1 -14 4 -14 3 -3
-5 8 -6 20 -8 28 -5 7 3 13 2 13 -2 0 -11 -28 -35 -42 -35 -10 0 -9 -3 2 -10
14 -9 12 -11 -7 -9 -4 0 -11 -9 -15 -21 -6 -16 -14 -20 -30 -16 -13 3 -17 3
-10 0 17 -8 5 -24 -19 -24 -10 0 -19 -5 -19 -11 0 -5 -4 -7 -10 -4 -5 3 -10 1
-10 -6 0 -6 -8 -9 -20 -6 -11 3 -18 2 -15 -3 8 -13 -46 -22 -61 -9 -10 8 -14
8 -14 0 0 -7 -9 -9 -27 -4 -16 3 -36 6 -45 6 -9 -1 -19 5 -22 13 -9 24 -28 16
-21 -8 4 -16 3 -19 -3 -10 -5 8 -21 15 -35 15 l-26 2 26 23 c15 12 33 20 41
17 8 -3 16 3 19 15 3 11 10 17 15 14 5 -3 12 3 15 14 3 14 12 19 29 17 13 -1
24 2 24 6 0 5 -6 9 -12 9 -9 0 -9 3 1 9 8 5 21 7 30 3 9 -3 13 -2 9 3 -11 12
12 47 27 41 9 -3 12 2 10 16 -5 23 35 61 67 63 10 1 20 4 22 6 8 8 106 -3 106
-12z"/>
<path d="M2432 1628 c-3 -13 -26 -63 -50 -111 -59 -115 -118 -177 -207 -218
-65 -30 -78 -32 -175 -32 -114 0 -188 19 -261 68 -32 21 -42 23 -74 14 -20 -6
-63 -13 -95 -17 l-59 -7 52 -65 c69 -85 154 -152 236 -187 61 -25 76 -28 201
-28 152 0 202 11 330 74 101 48 230 175 283 278 32 61 76 200 77 241 0 9 -32
12 -126 12 -122 0 -126 -1 -132 -22z m164 -10 c48 -1 53 -2 42 -16 -8 -10 -9
-13 -1 -9 7 5 11 -4 10 -28 -1 -21 -4 -30 -9 -22 -5 7 -8 -1 -8 -20 0 -59 -37
-108 -54 -70 -3 6 -3 0 0 -15 3 -14 0 -37 -7 -50 -7 -12 -14 -29 -15 -37 -4
-21 -46 -61 -58 -54 -6 3 -8 3 -4 -2 4 -4 1 -14 -7 -21 -7 -8 -15 -19 -18 -26
-4 -10 -7 -11 -18 0 -18 17 -34 15 -19 -3 10 -12 9 -15 -6 -15 -16 0 -17 -2
-4 -10 13 -8 11 -11 -7 -16 -13 -4 -23 -10 -23 -15 0 -18 -51 -30 -68 -17 -13
11 -14 10 -4 -8 9 -16 8 -21 -3 -21 -8 0 -11 5 -8 10 3 6 1 7 -5 3 -7 -4 -12
-14 -12 -23 0 -12 -7 -14 -30 -9 -18 3 -30 1 -30 -5 0 -6 -5 -7 -12 -3 -8 5
-9 2 -5 -9 3 -10 2 -17 -3 -17 -6 0 -10 5 -10 10 0 6 -5 10 -11 10 -6 0 -9 -6
-6 -14 4 -9 -1 -15 -11 -15 -34 -1 -88 -9 -105 -16 -10 -4 -23 -3 -29 3 -6 6
-21 7 -41 1 -19 -5 -35 -5 -43 2 -8 7 -13 7 -16 0 -2 -7 -14 -5 -32 4 -16 9
-31 13 -33 11 -8 -8 -63 16 -63 27 0 8 -3 7 -9 -1 -7 -11 -11 -11 -24 2 -8 9
-20 16 -26 16 -6 0 -11 4 -11 10 0 5 -3 9 -7 9 -20 -3 -34 2 -29 10 3 5 -6 12
-19 15 -14 4 -23 11 -20 16 3 6 1 10 -4 10 -18 0 -12 18 7 23 9 2 2 3 -16 1
-23 -2 -30 1 -25 9 13 21 13 39 0 29 -8 -6 -19 -3 -31 9 -19 19 -19 19 0 20
10 1 22 1 27 0 4 0 7 6 7 15 0 10 6 14 15 10 8 -3 15 0 15 7 0 7 5 4 11 -5 5
-10 18 -18 29 -18 10 0 21 -6 24 -12 5 -10 7 -10 12 -1 4 10 10 10 27 -2 12
-8 30 -15 40 -15 10 0 16 -4 13 -9 -4 -5 2 -7 12 -4 11 2 26 -3 36 -12 9 -9
16 -12 16 -6 0 11 30 7 75 -9 27 -10 40 -10 37 1 -1 5 5 9 13 9 8 0 15 -6 15
-12 0 -9 2 -10 8 -2 4 6 18 14 32 18 14 3 19 3 12 0 -6 -3 -10 -10 -6 -15 8
-14 24 -11 24 6 0 17 25 20 35 5 3 -5 12 -10 18 -9 9 0 9 2 0 6 -19 7 -15 20
8 26 15 4 19 2 15 -8 -3 -8 -1 -17 4 -20 6 -4 10 1 10 10 0 9 7 24 16 32 13
14 17 14 25 2 7 -11 9 -11 9 3 0 18 33 33 51 23 6 -4 8 -14 4 -24 -5 -12 -3
-13 5 -5 8 8 9 18 2 31 -9 15 -4 26 22 58 22 25 33 33 33 22 0 -9 -6 -17 -14
-17 -7 0 -13 -4 -13 -10 0 -14 16 -12 29 4 7 8 9 26 5 43 -4 15 -3 25 1 21 7
-7 39 19 41 34 1 4 2 12 3 18 0 5 8 7 17 3 14 -5 14 -3 3 15 -10 16 -10 23 0
36 7 8 19 12 28 9 13 -5 13 -3 4 15 -15 28 -14 35 4 28 18 -7 20 10 3 18 -7 4
-3 4 10 2 14 -3 25 1 29 10 3 9 13 12 25 8 10 -3 44 -6 74 -6z"/>
<path d="M2740 1632 c0 -45 -45 -184 -83 -257 -54 -103 -192 -245 -285 -294
-35 -18 -61 -35 -59 -37 7 -8 191 24 244 42 101 34 187 87 264 164 107 106
150 196 173 363 l5 37 -130 0 c-118 0 -129 -2 -129 -18z m236 -23 c3 -5 -2 -9
-12 -9 -13 0 -14 -3 -4 -15 10 -12 9 -16 -4 -21 -12 -5 -14 -10 -6 -20 8 -9 8
-19 -1 -36 -7 -13 -12 -26 -11 -30 1 -5 -3 -8 -8 -8 -5 0 -10 -9 -10 -20 0
-25 -21 -71 -30 -65 -3 2 -15 -14 -24 -36 -10 -22 -24 -43 -32 -46 -7 -3 -23
-20 -35 -39 -18 -30 -23 -33 -37 -22 -10 9 -13 9 -9 1 4 -6 2 -15 -4 -18 -6
-4 -13 2 -16 14 -3 11 -9 18 -15 15 -5 -3 -4 -12 3 -20 6 -8 8 -14 3 -14 -5 0
-2 -5 6 -10 13 -9 13 -10 0 -10 -8 0 -21 -9 -28 -21 -9 -15 -17 -18 -25 -10
-8 6 -18 6 -27 1 -8 -5 -18 -6 -24 -3 -5 3 -6 1 -2 -6 4 -6 12 -8 18 -5 7 5 8
2 3 -5 -4 -7 -16 -11 -26 -8 -11 3 -17 1 -13 -4 3 -5 -9 -9 -25 -9 -17 0 -31
-5 -31 -11 0 -7 -11 -9 -30 -5 -17 3 -30 1 -30 -4 0 -6 -7 -10 -15 -10 -13 0
-12 4 3 20 12 13 25 18 36 14 12 -5 19 0 23 15 6 23 18 27 28 11 5 -8 11 -8
19 -1 7 6 17 7 21 3 5 -4 5 -1 1 6 -4 7 -12 10 -17 6 -6 -3 -17 -3 -25 0 -12
4 -12 9 -2 25 9 15 17 17 34 10 14 -5 26 -4 29 2 4 5 1 8 -5 7 -17 -4 -21 30
-4 36 8 3 14 12 14 21 0 8 4 15 9 15 5 0 12 9 16 19 3 11 12 18 20 15 7 -3 16
-1 20 5 3 6 -1 11 -9 11 -21 0 -20 5 7 36 12 14 23 37 24 51 1 13 7 31 14 39
6 8 8 14 3 14 -5 0 -2 5 7 10 12 7 16 22 15 49 -1 22 0 38 3 36 4 -1 12 3 19
11 7 8 8 14 2 14 -5 0 -10 4 -10 9 0 11 199 11 206 0z"/>
<path d="M1405 1145 c-45 -46 -92 -81 -131 -100 l-62 -30 -1 -130 -1 -131 46
-55 c26 -29 50 -55 54 -57 4 -1 44 38 89 87 l81 89 -2 199 -3 198 -70 -70z
m49 -47 c8 -5 7 -8 -1 -8 -7 0 -13 -7 -13 -15 0 -8 4 -15 10 -15 6 0 6 -9 0
-25 -5 -14 -6 -25 -1 -25 5 0 8 -8 6 -17 -2 -10 -4 -20 -4 -23 -1 -3 -6 2 -11
10 -6 9 -10 10 -10 3 0 -6 5 -15 11 -18 7 -5 4 -14 -8 -28 -17 -19 -17 -20 0
-14 9 4 17 2 17 -3 0 -6 -6 -10 -12 -10 -10 0 -10 -2 0 -9 16 -9 15 -20 -1
-40 -9 -12 -9 -13 1 -7 6 4 12 2 12 -3 0 -6 -6 -11 -14 -11 -9 0 -16 -12 -18
-32 -2 -26 -10 -36 -35 -48 -20 -9 -31 -20 -28 -29 4 -9 -1 -12 -15 -8 -15 4
-20 1 -18 -11 2 -10 -5 -18 -17 -20 -11 -2 -16 0 -10 5 18 15 15 31 -5 26 -15
-4 -22 2 -30 22 -13 35 -13 35 8 28 10 -4 8 1 -8 14 -24 21 -25 21 -6 42 17
19 15 26 -6 22 -13 -2 -9 17 5 22 7 3 4 6 -6 6 -11 1 -15 5 -11 13 4 6 9 30
10 52 1 23 3 44 3 48 1 8 92 62 110 64 8 2 17 8 22 15 4 7 18 13 31 15 34 4
34 4 19 13 -8 5 -10 14 -5 22 6 10 9 10 12 -1 3 -8 10 -18 16 -22z"/>
<path d="M1530 1015 l1 -200 84 -89 84 -90 22 20 c12 10 35 37 50 58 28 38 29
42 29 170 l0 131 -68 35 c-39 20 -95 62 -134 100 l-68 66 0 -201z m80 72 c0
-7 9 -13 21 -14 25 -2 51 -22 43 -34 -3 -5 0 -8 8 -7 7 2 12 -5 11 -16 -1 -13
2 -15 10 -7 16 16 27 14 27 -5 0 -13 3 -14 13 -5 8 6 17 8 20 4 13 -12 7 -42
-10 -53 -14 -9 -14 -10 -2 -7 12 4 16 -2 16 -24 0 -21 -4 -28 -14 -25 -7 3
-13 -1 -13 -9 0 -9 6 -12 15 -9 10 4 15 0 15 -15 0 -12 -5 -21 -11 -21 -6 0
-7 -5 -2 -12 11 -18 10 -42 -2 -50 -6 -5 -5 -8 3 -8 10 0 10 -3 -2 -15 -8 -8
-19 -15 -25 -15 -6 0 -11 -4 -11 -10 0 -5 5 -10 10 -10 6 0 10 -4 10 -10 0 -5
-16 -10 -35 -10 -28 0 -35 4 -35 20 0 11 -3 19 -7 19 -19 -3 -33 2 -33 12 0 5
5 7 12 3 7 -4 8 -3 4 5 -4 6 -11 9 -14 7 -4 -2 -19 4 -32 15 -20 15 -22 19 -7
19 9 0 17 8 17 18 0 9 -4 13 -8 7 -4 -5 -16 -11 -27 -13 -12 -2 -16 0 -9 5 19
15 25 43 8 43 -11 0 -15 6 -11 20 3 11 1 20 -4 20 -5 0 -9 5 -9 11 0 6 9 8 23
4 15 -4 18 -4 8 3 -8 6 -10 15 -6 23 6 9 3 11 -8 6 -18 -7 -21 1 -11 27 3 9
12 16 20 16 8 0 14 5 14 11 0 5 -4 8 -8 5 -4 -2 -14 -1 -22 5 -12 7 -10 9 8 9
14 0 22 6 22 16 0 12 -3 14 -12 6 -10 -8 -13 -4 -14 14 -2 20 2 24 20 19 11
-2 15 -2 9 1 -18 8 -16 24 2 24 8 0 15 -6 15 -13z"/>
<path d="M146 951 l-47 -48 188 -184 c103 -101 242 -236 308 -299 66 -63 122
-118 125 -121 3 -4 42 -8 87 -10 l82 -4 1 347 0 348 -70 0 -70 0 0 -256 c0
-167 3 -253 10 -249 6 3 10 13 10 22 0 13 2 14 17 2 15 -12 16 -12 9 6 -15 38
-18 125 -6 140 10 12 10 15 -2 15 -11 0 -15 12 -14 50 0 28 5 50 11 50 5 0 3
5 -5 10 -12 7 -12 12 -2 22 16 16 16 52 0 42 -8 -5 -9 -2 -5 10 4 10 7 24 7
32 0 9 5 12 10 9 6 -3 10 -1 10 4 0 6 -4 11 -9 11 -11 0 -24 31 -16 38 3 3 12
-3 20 -14 14 -18 15 -18 11 9 -4 24 -1 27 22 27 25 0 25 0 6 -16 -10 -8 -13
-12 -5 -8 11 5 13 3 8 -10 -5 -13 -3 -17 7 -13 12 5 14 -3 11 -41 -2 -28 1
-50 8 -54 8 -5 6 -13 -7 -27 -11 -12 -14 -21 -8 -21 15 0 16 -37 2 -45 -8 -5
-7 -11 1 -21 12 -15 6 -29 -13 -29 -6 0 -13 -7 -15 -15 -3 -11 -2 -11 4 -3 6
8 13 9 23 2 13 -8 13 -10 0 -19 -8 -5 -12 -10 -8 -10 4 0 3 -11 -2 -25 -6 -16
-6 -25 0 -25 6 0 10 5 10 10 0 6 4 10 9 10 12 0 1 -42 -13 -53 -8 -6 -8 -10 1
-13 15 -7 6 -126 -11 -137 -7 -5 -4 -13 12 -25 l23 -18 -25 -23 c-14 -13 -26
-18 -30 -12 -4 5 -13 8 -21 4 -8 -3 -15 0 -15 7 0 10 -3 10 -14 1 -10 -8 -16
-9 -21 -1 -3 6 -11 7 -17 4 -7 -5 -9 0 -5 15 3 14 0 24 -9 28 -8 3 -14 13 -15
22 0 13 -2 13 -8 -2 -7 -18 -7 -18 -27 0 -11 10 -18 17 -16 16 3 -1 18 11 34
27 32 32 54 39 44 15 -6 -17 9 -21 19 -4 7 10 -124 142 -416 419 l-136 129
-47 -48z m75 -21 c4 0 6 -6 3 -14 -3 -8 0 -17 7 -22 7 -4 15 -2 17 4 2 7 8 12
13 12 4 0 6 -7 2 -16 -4 -10 1 -17 15 -21 14 -3 19 -10 15 -21 -4 -10 -2 -13
5 -8 7 4 12 1 12 -9 0 -10 7 -15 18 -13 14 2 17 -4 15 -32 -2 -30 -1 -32 7
-12 12 29 28 28 36 -3 3 -14 13 -25 20 -25 11 0 12 -4 4 -19 -13 -25 -13 -31
0 -31 5 0 9 5 7 11 -1 6 4 14 11 16 6 3 12 -3 12 -13 0 -9 3 -14 7 -11 9 10
44 -24 36 -36 -3 -5 -2 -7 3 -4 6 3 16 1 24 -4 13 -8 13 -10 0 -19 -12 -9 -10
-10 10 -8 16 2 24 -2 22 -9 -1 -7 3 -13 9 -13 5 0 7 -4 4 -10 -3 -5 3 -10 15
-10 12 0 19 -4 15 -9 -3 -5 1 -16 9 -24 8 -8 12 -18 8 -22 -4 -4 -2 -6 3 -5
23 5 45 -1 45 -11 0 -6 -7 -8 -17 -4 -13 4 -15 3 -7 -5 6 -6 21 -13 34 -15 13
-2 27 -8 31 -12 12 -13 -15 -41 -45 -49 -25 -6 -27 -4 -22 12 3 11 1 26 -5 34
-8 12 -9 10 -4 -7 4 -14 2 -23 -4 -23 -6 0 -11 5 -11 12 0 6 -3 9 -6 6 -7 -8
-44 28 -44 43 0 16 -24 36 -38 31 -7 -2 -12 6 -12 20 0 19 -2 20 -11 8 -8 -12
-10 -10 -6 11 3 23 1 25 -21 21 -17 -3 -23 -1 -18 7 4 6 1 11 -6 11 -18 0 -58
49 -52 64 3 8 -4 12 -18 12 -17 -1 -24 5 -26 22 -2 12 -8 19 -14 16 -17 -11
-67 52 -61 78 4 20 3 21 -7 6 -6 -10 -16 -18 -21 -18 -6 0 -7 4 -4 10 3 5 -3
17 -15 27 -11 10 -20 23 -20 30 0 6 -4 15 -10 18 -6 3 -7 -1 -4 -10 5 -11 2
-14 -10 -9 -9 4 -15 16 -14 32 2 30 16 44 36 37 8 -3 18 -5 23 -5z"/>
<path d="M1080 987 c-58 -20 -60 -29 -60 -379 l0 -318 73 0 72 0 0 355 0 355
-25 -1 c-14 0 -41 -5 -60 -12z m46 -32 c-3 -8 -1 -15 4 -15 6 0 10 -5 10 -11
0 -6 -7 -8 -16 -5 -10 4 -14 2 -11 -6 2 -7 9 -12 15 -11 6 2 10 -6 9 -17 -1
-11 -8 -20 -16 -20 -11 0 -12 -3 -4 -11 9 -9 9 -19 -2 -39 -12 -24 -12 -28 4
-39 15 -11 17 -20 9 -54 -6 -29 -5 -42 3 -48 7 -4 9 -17 5 -33 -5 -21 -9 -24
-20 -14 -7 7 -11 22 -9 33 4 18 3 18 -7 3 -12 -20 6 -58 28 -58 7 0 10 -5 7
-10 -4 -6 -11 -8 -16 -5 -5 4 -9 2 -9 -4 0 -5 5 -11 12 -13 8 -3 9 -12 0 -36
-8 -24 -8 -32 1 -32 7 0 6 -4 -3 -10 -13 -9 -13 -10 0 -10 10 0 16 -12 18 -40
1 -24 -2 -40 -8 -40 -6 0 -9 -4 -5 -9 3 -5 7 -23 9 -39 3 -26 -1 -32 -22 -37
-30 -7 -41 1 -13 10 12 3 21 11 21 17 0 7 -4 7 -12 0 -19 -15 -58 4 -58 28 0
11 5 20 11 20 8 0 8 4 2 13 -13 17 -9 87 7 117 12 23 12 24 -3 11 -15 -12 -17
-10 -17 14 0 18 6 28 20 32 11 3 17 9 15 14 -3 4 -12 6 -19 3 -9 -4 -13 4 -12
25 1 17 4 31 9 31 4 0 7 7 7 15 0 8 -4 15 -10 15 -12 0 -13 61 -1 113 6 23 5
37 -1 37 -5 0 -6 5 -3 11 4 6 14 8 22 5 8 -3 11 -1 8 4 -3 6 -13 10 -21 10
-17 0 -19 33 -3 61 16 30 76 52 65 24z"/>
<path d="M1850 646 l0 -356 70 0 70 0 0 318 c0 298 -1 319 -20 350 -11 18 -28
32 -39 32 -10 0 -33 3 -50 6 l-31 7 0 -357z m72 296 c-4 -11 -1 -14 11 -9 9 3
16 3 15 -1 -1 -4 2 -15 7 -26 5 -11 3 -26 -4 -38 -7 -12 -8 -17 -2 -13 7 4 11
-5 11 -24 0 -20 -5 -31 -14 -31 -8 0 -18 -5 -22 -12 -5 -7 -2 -9 9 -5 18 7 29
-14 17 -34 -5 -7 -5 -18 1 -25 6 -8 7 -14 0 -18 -6 -4 -6 -18 0 -39 5 -17 9
-33 9 -35 0 -2 -10 0 -21 3 -15 5 -19 4 -15 -4 4 -6 14 -11 22 -11 8 0 14 -4
14 -10 0 -5 -11 -10 -25 -10 -14 0 -25 -4 -25 -9 0 -4 11 -6 24 -4 19 4 24 0
28 -22 4 -18 1 -28 -9 -32 -11 -4 -11 -8 -3 -13 9 -6 9 -13 1 -28 -7 -14 -8
-23 -1 -27 7 -4 6 -14 -2 -28 -12 -23 -12 -25 1 -42 12 -16 7 -68 -6 -73 -7
-2 -13 3 -13 12 0 9 -5 16 -11 16 -6 0 -9 -7 -5 -15 7 -19 -18 -20 -33 -1 -9
11 -9 15 1 20 10 5 10 7 1 12 -20 9 -16 37 4 30 15 -6 15 -4 -2 14 -10 11 -15
23 -10 28 4 4 10 1 12 -6 3 -6 9 -9 14 -6 6 3 5 12 -2 20 -17 21 -21 67 -6 76
9 6 8 10 -3 18 -12 8 -12 10 -1 10 11 0 11 3 1 15 -6 8 -9 19 -5 25 3 5 0 10
-7 10 -9 0 -9 3 2 10 13 9 13 11 0 20 -13 8 -12 10 4 10 18 0 18 1 2 19 -20
22 -13 66 8 58 7 -3 18 3 24 14 11 17 10 18 -14 9 -33 -13 -34 -13 -34 5 0 9
7 18 15 21 12 5 12 8 -2 22 -15 16 -15 17 0 20 9 2 17 8 17 13 0 6 -6 7 -12 3
-10 -6 -10 -4 0 7 16 18 15 29 -4 29 -9 0 -12 5 -8 11 4 7 7 26 6 43 -1 31 8
43 32 43 8 0 12 -7 8 -15z"/>
<path d="M2120 635 l0 -345 299 0 c165 0 306 -3 315 -6 14 -5 16 5 16 76 l0
82 -245 -4 -245 -3 0 273 0 272 -70 0 -70 0 0 -345z m80 315 c0 -5 -4 -10 -10
-10 -5 0 -10 -5 -10 -11 0 -6 6 -9 14 -6 8 3 17 1 20 -6 3 -7 3 -2 0 11 -3 12
-1 22 4 22 10 0 22 -33 22 -63 0 -10 -4 -15 -10 -12 -6 4 -6 -3 0 -21 9 -22 8
-25 -5 -20 -13 5 -13 2 1 -19 14 -22 14 -27 1 -55 -9 -17 -11 -28 -6 -25 5 4
10 -1 10 -9 2 -25 1 -56 -1 -58 -7 -10 -7 -38 0 -38 10 0 7 -40 -3 -57 -4 -6
-3 -15 3 -18 7 -4 3 -14 -10 -25 -13 -11 -17 -21 -10 -25 5 -3 10 -1 10 5 0 6
5 8 10 5 15 -10 12 -35 -5 -35 -8 0 -15 -5 -15 -10 0 -6 6 -9 13 -8 7 2 11 -6
10 -20 -2 -13 1 -21 6 -18 5 3 12 -1 15 -10 3 -8 9 -13 13 -11 10 6 34 -19 26
-27 -4 -3 -1 -6 6 -6 8 0 11 8 9 18 -4 15 4 17 69 18 40 0 73 -3 73 -7 0 -4
10 -6 23 -3 12 3 57 5 99 5 42 0 80 4 83 9 10 16 28 12 21 -5 -4 -10 1 -14 16
-12 25 2 32 -31 11 -59 -7 -10 -13 -14 -13 -8 0 5 -4 3 -9 -5 -8 -12 -12 -12
-25 -2 -13 11 -16 11 -16 0 0 -11 -2 -11 -10 1 -5 8 -10 10 -10 5 0 -6 -16
-10 -35 -11 -26 -1 -35 3 -35 15 0 13 -2 14 -9 2 -5 -8 -16 -11 -25 -8 -9 4
-27 1 -40 -5 -14 -6 -33 -7 -43 -3 -10 5 -24 7 -30 6 -7 -1 -13 3 -13 8 0 5
-12 4 -27 -4 -15 -8 -31 -11 -37 -8 -6 4 -24 8 -41 9 -44 2 -45 2 -38 22 5 13
1 12 -16 -6 -26 -26 -41 -28 -41 -4 0 9 -5 24 -11 32 -9 12 -10 10 -6 -8 4
-15 1 -22 -6 -19 -19 6 -21 57 -3 57 8 0 18 5 22 12 5 8 2 9 -9 5 -10 -3 -17
-5 -17 -3 0 3 -3 12 -7 22 -4 11 -3 15 4 11 7 -4 10 2 9 17 0 13 -4 22 -8 19
-5 -2 -8 1 -8 6 0 6 4 11 8 11 11 0 12 39 1 45 -13 9 -11 42 4 48 8 4 9 8 1
14 -6 4 -9 26 -7 48 1 22 3 49 3 60 -2 74 -5 95 -13 95 -6 0 0 11 13 25 13 14
20 28 16 32 -4 4 -11 1 -16 -7 -8 -12 -10 -11 -10 6 0 11 5 25 12 32 9 9 9 12
-1 12 -11 0 -11 3 -1 15 7 8 9 15 4 15 -11 0 18 20 29 20 4 0 7 -4 7 -10z"/>
<path d="M1343 597 l-133 -142 0 -86 0 -87 135 -138 134 -139 1 368 c0 202 -1
367 -2 367 -2 -1 -63 -65 -135 -143z m107 23 c0 -11 -7 -20 -15 -20 -9 0 -12
-6 -9 -15 4 -8 10 -12 15 -9 5 3 9 0 9 -5 0 -10 -13 -15 -31 -13 -3 1 -6 -5
-6 -12 0 -8 8 -12 21 -9 17 4 18 3 6 -6 -12 -9 -12 -11 3 -16 12 -5 14 -11 7
-25 -5 -9 -6 -21 -2 -25 4 -5 -1 -5 -10 -2 -10 4 -18 3 -18 -2 0 -5 10 -11 23
-15 12 -3 18 -9 12 -13 -12 -9 -16 -73 -4 -73 4 0 4 -14 -1 -31 -6 -20 -6 -39
1 -51 9 -17 8 -19 -10 -13 -12 4 -21 2 -21 -4 0 -6 8 -11 18 -12 10 0 12 -3 5
-6 -7 -2 -13 -9 -13 -14 0 -6 5 -7 10 -4 6 3 10 1 10 -4 0 -6 -7 -11 -16 -11
-14 0 -14 -1 0 -16 22 -21 21 -45 -1 -38 -17 5 -17 5 0 -9 23 -19 22 -27 -4
-27 -12 0 -23 8 -26 20 -3 11 -9 17 -14 14 -5 -3 -17 2 -26 11 -14 14 -14 18
-2 26 11 7 10 9 -4 9 -19 0 -97 74 -97 91 0 6 -4 8 -9 5 -5 -4 -7 3 -4 14 3
11 9 18 13 15 4 -3 10 4 13 15 3 11 1 23 -4 26 -5 3 -9 0 -9 -5 0 -6 -5 -11
-10 -11 -19 0 -6 35 15 42 18 5 18 6 -3 7 -20 1 -22 5 -16 24 10 32 74 113 74
93 0 -9 4 -16 9 -16 5 0 8 11 5 24 -3 17 2 29 17 40 12 8 31 28 41 43 13 18
18 21 14 8 -7 -19 -5 -18 16 3 27 27 28 27 28 2z"/>
<path d="M1530 372 l0 -367 135 137 136 137 -3 92 c-2 77 -6 96 -23 114 -11
12 -71 73 -132 137 l-113 116 0 -366z m97 223 c24 -25 40 -45 36 -45 -4 -1 4
-8 20 -16 15 -8 27 -21 27 -29 0 -8 7 -15 16 -15 10 0 14 -5 10 -16 -3 -8 -2
-13 2 -10 13 8 31 -29 21 -45 -11 -17 -12 -32 -1 -26 4 3 7 -18 7 -46 0 -43
-5 -57 -27 -81 -16 -16 -28 -33 -28 -38 0 -5 -9 -4 -20 2 -14 7 -20 7 -20 0 0
-5 5 -10 10 -10 6 0 10 -4 10 -10 0 -5 -7 -10 -15 -10 -8 0 -15 -5 -15 -11 0
-5 -5 -7 -12 -3 -7 5 -9 2 -5 -9 4 -11 2 -14 -9 -10 -8 3 -14 2 -12 -3 5 -15
-26 -49 -46 -52 -17 -3 -18 -2 -3 13 19 18 12 45 -12 46 -12 0 -11 3 7 16 28
19 29 38 1 23 -18 -10 -19 -10 -10 8 6 11 8 21 6 24 -9 8 -12 108 -4 108 5 0
6 7 2 17 -5 13 -2 15 16 10 19 -4 20 -3 10 9 -7 8 -18 13 -26 10 -7 -3 -13 -2
-13 2 0 10 20 39 20 29 0 -4 6 -2 13 5 11 10 12 15 1 25 -17 17 -27 16 -20 -2
3 -8 1 -15 -4 -15 -18 0 -10 29 10 40 21 11 27 30 9 30 -5 0 -7 -4 -4 -10 3
-5 1 -10 -4 -10 -6 0 -11 9 -11 21 0 15 5 19 15 15 9 -3 15 0 15 9 0 7 -9 17
-21 20 -16 5 -18 10 -8 21 6 8 17 14 25 14 7 0 15 4 18 8 3 5 -5 8 -17 8 -13
-1 -23 6 -25 17 -6 29 18 19 65 -28z"/>
<path d="M93 511 l2 -221 73 0 72 0 0 170 c0 228 -8 246 -113 265 l-35 7 1
-221z m87 159 c14 -13 15 -18 2 -38 -8 -12 -12 -25 -9 -28 3 -3 8 4 12 15 8
25 24 28 24 4 0 -10 2 -33 5 -52 5 -30 3 -33 -15 -28 -12 3 -18 3 -15 0 3 -4
1 -12 -6 -20 -8 -10 -8 -12 4 -8 8 3 21 -2 29 -11 10 -13 10 -15 1 -10 -9 6
-11 1 -8 -18 3 -14 7 -30 10 -35 4 -5 2 -11 -3 -13 -6 -2 -7 -17 -2 -38 4 -20
4 -44 0 -55 -6 -18 -9 -16 -19 13 -7 17 -16 32 -21 32 -5 0 -4 -12 2 -26 11
-31 11 -31 -16 -36 -16 -2 -21 4 -25 40 -4 27 -2 42 4 42 7 0 8 3 1 8 -14 10
-17 72 -3 72 7 0 7 4 -1 14 -9 10 -8 15 4 20 19 7 20 26 1 26 -8 0 -13 10 -13
25 0 13 4 23 11 22 6 -1 12 9 13 23 1 14 0 19 -3 13 -11 -25 -24 -12 -20 20 3
17 5 35 5 38 2 12 35 4 51 -11z"/>
<path d="M1211 600 l0 -75 29 35 c16 19 29 37 29 40 0 3 -13 21 -29 40 l-29
35 0 -75z"/>
<path d="M1767 635 l-28 -35 28 -35 28 -35 3 35 c2 19 2 51 0 70 l-3 35 -28
-35z"/>
</g>
</svg>
